General
Count                            : 278
Count of stream of this kind     : 1
Kind of stream                   : General
Kind of stream                   : General
Stream identifier                : 0
Unique ID                        : 183139063730859171835473748540260768249
Unique ID                        : 183139063730859171835473748540260768249 (0x89C74CF98970104A9287157CCA2659F9)
Count of video streams           : 1
Count of audio streams           : 2
Video_Format_List                : VC-1
Video_Format_WithHint_List       : VC-1 (Microsoft)
Codecs Video                     : VC-1
Video_Language_List              : English
Audio_Format_List                : AC-3 / E-AC-3
Audio_Format_WithHint_List       : AC-3 / E-AC-3
Audio codecs                     : AC3 / AC3+
Audio_Language_List              : English / English
Complete name                    : _MKV_VC-1_DD_2 and DDPlus_5.1.mkv
File name                        : _MKV_VC-1_DD_2 and DDPlus_5.1.mkv
File extension                   : mkv
Format                           : Matroska
Format                           : Matroska
Format/Url                       : http://packs.matroska.org/
Format/Extensions usually used   : mkv mk3d mka mks
Commercial name                  : Matroska
Format version                   : Version 2
Codec                            : Matroska
Codec                            : Matroska
Codec/Url                        : http://packs.matroska.org/
Codec/Extensions usually used    : mkv mk3d mka mks
File size                        : 10254231
File size                        : 9.78 MiB
File size                        : 10 MiB
File size                        : 9.8 MiB
File size                        : 9.78 MiB
File size                        : 9.779 MiB
Duration                         : 5669
Duration                         : 5s 669ms
Duration                         : 5s 669ms
Duration                         : 5s 669ms
Duration                         : 00:00:05.669
Overall bit rate                 : 14470602
Overall bit rate                 : 14.5 Mbps
Stream size                      : 199221
Stream size                      : 195 KiB (2%)
Stream size                      : 195 KiB
Stream size                      : 195 KiB
Stream size                      : 195 KiB
Stream size                      : 194.6 KiB
Stream size                      : 195 KiB (2%)
Proportion of this stream        : 0.01943
Encoded date                     : UTC 2010-07-21 10:26:13
File creation date               : UTC 2011-11-28 08:45:32.744
File creation date (local)       : 2011-11-28 08:45:32.744
File last modification date      : UTC 2010-07-21 11:26:13.471
File last modification date (loc : 2010-07-21 11:26:13.471
Writing application              : mkvmerge v4.1.0 ('Boiling Point') built on Jul  1 2010 14:37:28
Writing library                  : libebml v1.0.0 + libmatroska v1.0.0
Writing library                  : libebml v1.0.0 + libmatroska v1.0.0

Video
Count                            : 200
Count of stream of this kind     : 1
Kind of stream                   : Video
Kind of stream                   : Video
Stream identifier                : 0
ID                               : 1
ID                               : 1
Unique ID                        : 1
Format                           : VC-1
Commercial name                  : VC-1
Format profile                   : AP@L3
Internet media type              : video/vc1
Codec ID                         : WVC1
Codec ID/Hint                    : Microsoft
Codec                            : WVC1
Codec                            : VC-1
Codec/Family                     : VC-1
Codec/Info                       : Microsoft
Codec/CC                         : WVC1
Codec profile                    : AP@L3
Duration                         : 5672
Duration                         : 5s 672ms
Duration                         : 5s 672ms
Duration                         : 5s 672ms
Duration                         : 00:00:05.672
Bit rate                         : 12902637
Bit rate                         : 12.9 Mbps
Width                            : 1920
Width                            : 1 920 pixels
Height                           : 1080
Height                           : 1 080 pixels
Pixel aspect ratio               : 1.000
Display aspect ratio             : 1.778
Display aspect ratio             : 16:9
Frame rate                       : 29.970
Frame rate                       : 29.970 fps
Frame count                      : 170
Resolution                       : 8
Resolution                       : 8 bits
Colorimetry                      : 4:2:0
Chroma subsampling               : 4:2:0
Bit depth                        : 8
Bit depth                        : 8 bits
Scan type                        : Progressive
Scan type                        : Progressive
Interlacement                    : PPF
Interlacement                    : Progressive
Compression mode                 : Lossy
Compression mode                 : Lossy
Bits/(Pixel*Frame)               : 0.208
Delay                            : 42
Delay                            : 42ms
Delay                            : 42ms
Delay                            : 42ms
Delay                            : 00:00:00.042
Delay, origin                    : Container
Delay, origin                    : Container
Stream size                      : 9147970
Stream size                      : 8.72 MiB (89%)
Stream size                      : 9 MiB
Stream size                      : 8.7 MiB
Stream size                      : 8.72 MiB
Stream size                      : 8.724 MiB
Stream size                      : 8.72 MiB (89%)
Proportion of this stream        : 0.89212
Title                            : 1080p VC-1
Language                         : en
Language                         : English
Language                         : English
Language                         : en
Language                         : eng
Language                         : en
Buffer size                      : 1843200

Audio #1
Count                            : 180
Count of stream of this kind     : 2
Kind of stream                   : Audio
Kind of stream                   : Audio
Stream identifier                : 0
Stream identifier                : 1
ID                               : 2
ID                               : 2
Unique ID                        : 418009001
Format                           : AC-3
Format/Info                      : Audio Coding 3
Commercial name                  : AC-3
Mode extension                   : CM (complete main)
Muxing mode                      : Header stripping
Codec ID                         : A_AC3
Codec                            : AC3
Codec                            : AC3
Codec/Family                     : AC3
Codec/Info                       : Dolby AC3
Duration                         : 5669
Duration                         : 5s 669ms
Duration                         : 5s 669ms
Duration                         : 5s 669ms
Duration                         : 00:00:05.669
Bit rate mode                    : CBR
Bit rate mode                    : Constant
Bit rate                         : 640000
Bit rate                         : 640 Kbps
Channel(s)                       : 2
Channel(s)                       : 2 channels
Channel positions                : Front: L R
Channel positions                : 2/0/0
Sampling rate                    : 48000
Sampling rate                    : 48.0 KHz
Samples count                    : 272112
Resolution                       : 16
Resolution                       : 16 bits
Bit depth                        : 16
Bit depth                        : 16 bits
Compression mode                 : Lossy
Compression mode                 : Lossy
Delay                            : 47
Delay                            : 47ms
Delay                            : 47ms
Delay                            : 47ms
Delay                            : 00:00:00.047
Delay, origin                    : Container
Delay, origin                    : Container
Delay relative to video          : 5
Delay relative to video          : 5ms
Delay relative to video          : 5ms
Delay relative to video          : 5ms
Delay relative to video          : 00:00:00.005
Video0 delay                     : 5
Video0 delay                     : 5ms
Video0 delay                     : 5ms
Video0 delay                     : 5ms
Video0 delay                     : 00:00:00.005
Stream size                      : 453520
Stream size                      : 443 KiB (4%)
Stream size                      : 443 KiB
Stream size                      : 443 KiB
Stream size                      : 443 KiB
Stream size                      : 442.9 KiB
Stream size                      : 443 KiB (4%)
Proportion of this stream        : 0.04423
Title                            : Dolby Digital 2.0 640kbps
Language                         : en
Language                         : English
Language                         : English
Language                         : en
Language                         : eng
Language                         : en
dsurmod                          : 0
dialnorm                         : -31
dialnorm/String                  : -31 dB
bsid                             : 8
dialnorm_Average                 : -31
dialnorm_Average/String          : -31 dB
dialnorm_Minimum                 : -31
dialnorm_Minimum/String          : -31 dB
dialnorm_Maximum                 : -31
dialnorm_Maximum/String          : -31 dB
dialnorm_Count                   : 2

Audio #2
Count                            : 188
Count of stream of this kind     : 2
Kind of stream                   : Audio
Kind of stream                   : Audio
Stream identifier                : 1
Stream identifier                : 2
ID                               : 3
ID                               : 3
Unique ID                        : 2
Format                           : E-AC-3
Format/Info                      : Audio Coding 3
Commercial name                  : E-AC-3
Internet media type              : audio/eac3
Muxing mode                      : Header stripping
Codec ID                         : A_EAC3
Codec                            : AC3+
Codec                            : AC3+
Codec/Family                     : AC3
Codec/Info                       : Dolby Ehanced AC3
Duration                         : 5669
Duration                         : 5s 669ms
Duration                         : 5s 669ms
Duration                         : 5s 669ms
Duration                         : 00:00:05.669
Bit rate mode                    : CBR
Bit rate mode                    : Constant
Bit rate                         : 640000
Bit rate                         : 640 Kbps
Channel(s)                       : 6
Channel(s)                       : 6 channels
Channel positions                : Front: L C R, Side: L R, LFE
Sampling rate                    : 48000
Sampling rate                    : 48.0 KHz
Samples count                    : 272112
Compression mode                 : Lossy
Compression mode                 : Lossy
Delay                            : 64
Delay                            : 64ms
Delay                            : 64ms
Delay                            : 64ms
Delay                            : 00:00:00.064
Delay, origin                    : Container
Delay, origin                    : Container
Delay relative to video          : 22
Delay relative to video          : 22ms
Delay relative to video          : 22ms
Delay relative to video          : 22ms
Delay relative to video          : 00:00:00.022
Video0 delay                     : 22
Video0 delay                     : 22ms
Video0 delay                     : 22ms
Video0 delay                     : 22ms
Video0 delay                     : 00:00:00.022
Stream size                      : 453520
Stream size                      : 443 KiB (4%)
Stream size                      : 443 KiB
Stream size                      : 443 KiB
Stream size                      : 443 KiB
Stream size                      : 442.9 KiB
Stream size                      : 443 KiB (4%)
Proportion of this stream        : 0.04423
Title                            : Dolby Digital Plus 5.1 640kbps
Language                         : en
Language                         : English
Language                         : English
Language                         : en
Language                         : eng
Language                         : en
dialnorm                         : -27
dialnorm/String                  : -27 dB
compr                            : -3.25
compr/String                     : -3.25 dB
bsid                             : 16
dialnorm_Average                 : -27
dialnorm_Average/String          : -27 dB
dialnorm_Minimum                 : -27
dialnorm_Minimum/String          : -27 dB
dialnorm_Maximum                 : -27
dialnorm_Maximum/String          : -27 dB
dialnorm_Count                   : 2
compr_Average                    : -3.25
compr_Average/String             : -3.25 dB
compr_Minimum                    : -3.25
compr_Minimum/String             : -3.25 dB
compr_Maximum                    : -3.25
compr_Maximum/String             : -3.25 dB
compr_Count                      : 2

